<svg width="200" height="55" viewBox="0 0 200 55" fill="none" xmlns="http://www.w3.org/2000/svg">
<ellipse cx="12.4453" cy="26.0775" rx="12.4453" ry="19.0775" fill="#2465F2"/>
<ellipse cx="13.7109" cy="30.0141" rx="13.2891" ry="19.9859" fill="white"/>
<path d="M12.36 41.24C11.48 41.24 10.7467 41 10.16 40.52C9.6 40.04 9.32 39.3333 9.32 38.4V23.8C9.32 22.8667 9.61333 22.16 10.2 21.68C10.7867 21.2 11.5067 20.96 12.36 20.96C13.2133 20.96 13.92 21.2 14.48 21.68C15.0667 22.16 15.36 22.8667 15.36 23.8V38.4C15.36 39.3333 15.0667 40.04 14.48 40.52C13.92 41 13.2133 41.24 12.36 41.24ZM12.36 17.76C11.2933 17.76 10.4533 17.4933 9.84 16.96C9.22667 16.4 8.92 15.6533 8.92 14.72C8.92 13.7867 9.22667 13.0533 9.84 12.52C10.4533 11.9867 11.2933 11.72 12.36 11.72C13.4 11.72 14.2267 12 14.84 12.56C15.48 13.0933 15.8 13.8133 15.8 14.72C15.8 15.6533 15.4933 16.4 14.88 16.96C14.2667 17.4933 13.4267 17.76 12.36 17.76ZM30.3041 20.88C32.6507 20.88 34.3974 21.5733 35.5441 22.96C36.6907 24.32 37.2641 26.3867 37.2641 29.16V38.4C37.2641 39.28 36.9841 39.9733 36.4241 40.48C35.8907 40.9867 35.1574 41.24 34.2241 41.24C33.2907 41.24 32.5574 40.9867 32.0241 40.48C31.4907 39.9733 31.2241 39.28 31.2241 38.4V29.44C31.2241 28.1067 30.9707 27.1333 30.4641 26.52C29.9841 25.9067 29.2241 25.6 28.1841 25.6C26.9307 25.6 25.9174 26 25.1441 26.8C24.3974 27.6 24.0241 28.6667 24.0241 30V38.4C24.0241 39.28 23.7574 39.9733 23.2241 40.48C22.6907 40.9867 21.9574 41.24 21.0241 41.24C20.0907 41.24 19.3441 40.9867 18.7841 40.48C18.2507 39.9733 17.9841 39.28 17.9841 38.4V23.72C17.9841 22.8933 18.2641 22.2267 18.8241 21.72C19.4107 21.2133 20.1574 20.96 21.0641 20.96C21.8907 20.96 22.5574 21.2133 23.0641 21.72C23.5974 22.2 23.8641 22.8267 23.8641 23.6V24.16C24.5574 23.0933 25.4507 22.28 26.5441 21.72C27.6641 21.16 28.9174 20.88 30.3041 20.88ZM56.5331 12.6C57.4665 12.6 58.2131 12.8533 58.7731 13.36C59.3598 13.8667 59.6531 14.5333 59.6531 15.36V38.4C59.6531 39.2533 59.3731 39.9467 58.8131 40.48C58.2798 40.9867 57.5598 41.24 56.6531 41.24C55.7465 41.24 55.0131 40.9867 54.4531 40.48C53.9198 39.9467 53.6531 39.2533 53.6531 38.4V38.08C53.0665 39.0933 52.2265 39.8933 51.1331 40.48C50.0665 41.04 48.8531 41.32 47.4931 41.32C45.8131 41.32 44.3065 40.8933 42.9731 40.04C41.6665 39.16 40.6398 37.9467 39.8931 36.4C39.1731 34.8267 38.8131 33.0267 38.8131 31C38.8131 28.9733 39.1731 27.2 39.8931 25.68C40.6398 24.1333 41.6665 22.9467 42.9731 22.12C44.2798 21.2933 45.7865 20.88 47.4931 20.88C48.8265 20.88 50.0265 21.16 51.0931 21.72C52.1865 22.28 53.0265 23.0667 53.6131 24.08V15.24C53.6131 14.44 53.8798 13.8 54.4131 13.32C54.9465 12.84 55.6531 12.6 56.5331 12.6ZM49.2531 36.72C50.6665 36.72 51.7465 36.24 52.4931 35.28C53.2665 34.2933 53.6531 32.8933 53.6531 31.08C53.6531 29.2667 53.2665 27.88 52.4931 26.92C51.7465 25.96 50.6665 25.48 49.2531 25.48C47.8398 25.48 46.7465 25.96 45.9731 26.92C45.1998 27.8533 44.8131 29.2133 44.8131 31C44.8131 32.8133 45.1998 34.2267 45.9731 35.24C46.7465 36.2267 47.8398 36.72 49.2531 36.72ZM78.1844 20.96C79.1177 20.96 79.851 21.2133 80.3844 21.72C80.9444 22.2267 81.2244 22.92 81.2244 23.8V38.48C81.2244 39.3067 80.931 39.9733 80.3444 40.48C79.7844 40.9867 79.051 41.24 78.1444 41.24C77.291 41.24 76.611 41 76.1044 40.52C75.5977 40.04 75.3444 39.4 75.3444 38.6V38.2C74.731 39.2133 73.9177 39.9867 72.9044 40.52C71.9177 41.0533 70.7977 41.32 69.5444 41.32C67.0644 41.32 65.211 40.64 63.9844 39.28C62.7844 37.8933 62.1844 35.8133 62.1844 33.04V23.8C62.1844 22.92 62.451 22.2267 62.9844 21.72C63.5444 21.2133 64.291 20.96 65.2244 20.96C66.1577 20.96 66.891 21.2133 67.4244 21.72C67.9577 22.2267 68.2244 22.92 68.2244 23.8V33.16C68.2244 34.3333 68.4644 35.2 68.9444 35.76C69.451 36.32 70.211 36.6 71.2244 36.6C72.3977 36.6 73.3444 36.2 74.0644 35.4C74.811 34.6 75.1844 33.5467 75.1844 32.24V23.8C75.1844 22.92 75.451 22.2267 75.9844 21.72C76.5177 21.2133 77.251 20.96 78.1844 20.96ZM96.0191 20.88C97.7257 20.88 99.2324 21.2933 100.539 22.12C101.846 22.9467 102.859 24.1333 103.579 25.68C104.326 27.2 104.699 28.9733 104.699 31C104.699 33.0267 104.326 34.8267 103.579 36.4C102.859 37.9467 101.832 39.16 100.499 40.04C99.1924 40.8933 97.6991 41.32 96.0191 41.32C94.6591 41.32 93.4324 41.04 92.3391 40.48C91.2457 39.8933 90.4057 39.0933 89.8191 38.08V38.4C89.8191 39.2533 89.5524 39.9467 89.0191 40.48C88.4857 40.9867 87.7657 41.24 86.8591 41.24C85.9524 41.24 85.2191 40.9867 84.6591 40.48C84.1257 39.9467 83.8591 39.2533 83.8591 38.4V15.36C83.8591 14.5333 84.1391 13.8667 84.6991 13.36C85.2857 12.8533 86.0457 12.6 86.9791 12.6C87.8591 12.6 88.5657 12.84 89.0991 13.32C89.6324 13.8 89.8991 14.44 89.8991 15.24V24C90.4857 23.0133 91.3124 22.2533 92.3791 21.72C93.4724 21.16 94.6857 20.88 96.0191 20.88ZM94.2591 36.72C95.6724 36.72 96.7657 36.2267 97.5391 35.24C98.3124 34.2267 98.6991 32.8133 98.6991 31C98.6991 29.2133 98.3124 27.8533 97.5391 26.92C96.7657 25.96 95.6724 25.48 94.2591 25.48C92.8457 25.48 91.7524 25.9733 90.9791 26.96C90.2057 27.92 89.8191 29.2933 89.8191 31.08C89.8191 32.8933 90.2057 34.2933 90.9791 35.28C91.7524 36.24 92.8457 36.72 94.2591 36.72ZM109.43 41.24C108.55 41.24 107.817 41 107.23 40.52C106.67 40.04 106.39 39.3333 106.39 38.4V23.8C106.39 22.8667 106.684 22.16 107.27 21.68C107.857 21.2 108.577 20.96 109.43 20.96C110.284 20.96 110.99 21.2 111.55 21.68C112.137 22.16 112.43 22.8667 112.43 23.8V38.4C112.43 39.3333 112.137 40.04 111.55 40.52C110.99 41 110.284 41.24 109.43 41.24ZM109.43 17.76C108.364 17.76 107.524 17.4933 106.91 16.96C106.297 16.4 105.99 15.6533 105.99 14.72C105.99 13.7867 106.297 13.0533 106.91 12.52C107.524 11.9867 108.364 11.72 109.43 11.72C110.47 11.72 111.297 12 111.91 12.56C112.55 13.0933 112.87 13.8133 112.87 14.72C112.87 15.6533 112.564 16.4 111.95 16.96C111.337 17.4933 110.497 17.76 109.43 17.76ZM127.146 36.84C127.946 36.8933 128.533 37.0933 128.906 37.44C129.28 37.7867 129.466 38.2933 129.466 38.96C129.466 39.7333 129.16 40.32 128.546 40.72C127.933 41.12 127.053 41.28 125.906 41.2L124.786 41.12C120.12 40.7467 117.786 38.3067 117.786 33.8V25.88H116.186C115.306 25.88 114.64 25.6933 114.186 25.32C113.733 24.92 113.506 24.36 113.506 23.64C113.506 22.8933 113.733 22.3333 114.186 21.96C114.64 21.56 115.306 21.36 116.186 21.36H117.786V18.24C117.786 17.36 118.053 16.6667 118.586 16.16C119.146 15.6533 119.893 15.4 120.826 15.4C121.76 15.4 122.493 15.6533 123.026 16.16C123.56 16.6667 123.826 17.36 123.826 18.24V21.36H126.626C128.44 21.36 129.346 22.12 129.346 23.64C129.346 24.36 129.12 24.92 128.666 25.32C128.213 25.6933 127.533 25.88 126.626 25.88H123.826V34.24C123.826 35.04 124.013 35.6533 124.386 36.08C124.76 36.48 125.306 36.7067 126.026 36.76L127.146 36.84ZM138.535 20.88C141.415 20.88 143.548 21.5867 144.935 23C146.322 24.3867 147.015 26.52 147.015 29.4V38.44C147.015 39.32 146.762 40.0133 146.255 40.52C145.748 41 145.042 41.24 144.135 41.24C143.282 41.24 142.588 40.9867 142.055 40.48C141.548 39.9467 141.295 39.2667 141.295 38.44V38.16C140.895 39.1467 140.228 39.92 139.295 40.48C138.362 41.04 137.268 41.32 136.015 41.32C134.682 41.32 133.468 41.0533 132.375 40.52C131.308 39.9867 130.455 39.24 129.815 38.28C129.202 37.32 128.895 36.2533 128.895 35.08C128.895 33.64 129.255 32.5067 129.975 31.68C130.722 30.8533 131.908 30.2533 133.535 29.88C135.162 29.5067 137.388 29.32 140.215 29.32H141.255V28.6C141.255 27.48 141.002 26.6667 140.495 26.16C140.015 25.6533 139.202 25.4 138.055 25.4C136.908 25.4 135.255 25.8 133.095 26.6C132.482 26.8933 131.962 27.04 131.535 27.04C130.948 27.04 130.482 26.84 130.135 26.44C129.788 26.0133 129.615 25.4667 129.615 24.8C129.615 24.2667 129.735 23.8267 129.975 23.48C130.215 23.1333 130.602 22.8133 131.135 22.52C132.068 22.0133 133.202 21.6133 134.535 21.32C135.895 21.0267 137.228 20.88 138.535 20.88ZM137.335 37.16C138.508 37.16 139.455 36.7733 140.175 36C140.895 35.2 141.255 34.1733 141.255 32.92V32.24H140.575C138.415 32.24 136.895 32.4133 136.015 32.76C135.162 33.1067 134.735 33.7333 134.735 34.64C134.735 35.3867 134.975 36 135.455 36.48C135.962 36.9333 136.588 37.16 137.335 37.16ZM161.691 20.88C163.398 20.88 164.904 21.2933 166.211 22.12C167.518 22.9467 168.531 24.1333 169.251 25.68C169.998 27.2 170.371 28.9733 170.371 31C170.371 33.0267 169.998 34.8267 169.251 36.4C168.531 37.9467 167.504 39.16 166.171 40.04C164.864 40.8933 163.371 41.32 161.691 41.32C160.331 41.32 159.104 41.04 158.011 40.48C156.918 39.8933 156.078 39.0933 155.491 38.08V38.4C155.491 39.2533 155.224 39.9467 154.691 40.48C154.158 40.9867 153.438 41.24 152.531 41.24C151.624 41.24 150.891 40.9867 150.331 40.48C149.798 39.9467 149.531 39.2533 149.531 38.4V15.36C149.531 14.5333 149.811 13.8667 150.371 13.36C150.958 12.8533 151.718 12.6 152.651 12.6C153.531 12.6 154.238 12.84 154.771 13.32C155.304 13.8 155.571 14.44 155.571 15.24V24C156.158 23.0133 156.984 22.2533 158.051 21.72C159.144 21.16 160.358 20.88 161.691 20.88ZM159.931 36.72C161.344 36.72 162.438 36.2267 163.211 35.24C163.984 34.2267 164.371 32.8133 164.371 31C164.371 29.2133 163.984 27.8533 163.211 26.92C162.438 25.96 161.344 25.48 159.931 25.48C158.518 25.48 157.424 25.9733 156.651 26.96C155.878 27.92 155.491 29.2933 155.491 31.08C155.491 32.8933 155.878 34.2933 156.651 35.28C157.424 36.24 158.518 36.72 159.931 36.72ZM175.102 41.24C174.222 41.24 173.489 41 172.902 40.52C172.342 40.04 172.062 39.3333 172.062 38.4V15.44C172.062 14.5067 172.342 13.8 172.902 13.32C173.489 12.84 174.222 12.6 175.102 12.6C175.956 12.6 176.662 12.84 177.222 13.32C177.809 13.8 178.102 14.5067 178.102 15.44V38.4C178.102 39.3333 177.809 40.04 177.222 40.52C176.662 41 175.956 41.24 175.102 41.24ZM194.126 22.68C194.366 22.12 194.7 21.7067 195.126 21.44C195.58 21.1733 196.06 21.04 196.566 21.04C197.34 21.04 198.02 21.2933 198.606 21.8C199.193 22.28 199.486 22.8667 199.486 23.56C199.486 23.9333 199.393 24.3067 199.206 24.68L188.446 46.76C188.18 47.32 187.82 47.7333 187.366 48C186.913 48.2933 186.433 48.44 185.926 48.44C185.18 48.44 184.526 48.2 183.966 47.72C183.406 47.24 183.126 46.6533 183.126 45.96C183.126 45.5333 183.22 45.1333 183.406 44.76L186.046 39.28L178.926 24.68C178.766 24.3067 178.686 23.9467 178.686 23.6C178.686 22.88 178.993 22.2667 179.606 21.76C180.246 21.2533 180.966 21 181.766 21C182.3 21 182.793 21.1467 183.246 21.44C183.7 21.7067 184.06 22.12 184.326 22.68L189.286 33.48L194.126 22.68Z" fill="#2465F2"/>
<circle cx="11.5" cy="16.5" r="5.5" fill="white"/>
<circle cx="12" cy="22" r="6" fill="white"/>
<circle cx="12.5" cy="21.5" r="4.5" fill="#2465F2"/>
</svg>
